<mxfile host="Electron" modified="2023-12-30T23:16:31.737Z" agent="Mozilla/5.0 (Windows NT 10.0; Win64; x64) AppleWebKit/537.36 (KHTML, like Gecko) draw.io/22.1.16 Chrome/120.0.6099.109 Electron/28.1.0 Safari/537.36" etag="CHMV4xTQmdKwQ5M4VskU" version="22.1.16" type="device">
  <diagram name="ページ1" id="LE8fIzdrHe0wcv1LTvfw">
    <mxGraphModel dx="2125" dy="1140" grid="1" gridSize="10" guides="1" tooltips="1" connect="1" arrows="1" fold="1" page="1" pageScale="1" pageWidth="1600" pageHeight="1200" math="0" shadow="0">
      <root>
        <mxCell id="0" />
        <mxCell id="cFaB45KztUIKXS-_cTrr-4" value="背景" style="locked=1;" parent="0" visible="0" />
        <mxCell id="cFaB45KztUIKXS-_cTrr-5" value="" style="rounded=0;whiteSpace=wrap;html=1;strokeWidth=3;" parent="cFaB45KztUIKXS-_cTrr-4" vertex="1">
          <mxGeometry x="1" y="1" width="1595" height="1180" as="geometry" />
        </mxCell>
        <mxCell id="cFaB45KztUIKXS-_cTrr-6" value="" style="rounded=0;whiteSpace=wrap;html=1;fillColor=#B3B3B3;fontColor=#333333;strokeColor=#666666;" parent="cFaB45KztUIKXS-_cTrr-4" vertex="1">
          <mxGeometry width="1595" height="60" as="geometry" />
        </mxCell>
        <mxCell id="cFaB45KztUIKXS-_cTrr-7" value="&lt;font style=&quot;font-size: 48px;&quot;&gt;×&lt;/font&gt;" style="rounded=0;whiteSpace=wrap;html=1;" parent="cFaB45KztUIKXS-_cTrr-4" vertex="1">
          <mxGeometry x="1550" y="10" width="40" height="40" as="geometry" />
        </mxCell>
        <mxCell id="cFaB45KztUIKXS-_cTrr-8" value="" style="rounded=0;whiteSpace=wrap;html=1;" parent="cFaB45KztUIKXS-_cTrr-4" vertex="1">
          <mxGeometry x="830" y="670" width="120" height="60" as="geometry" />
        </mxCell>
        <mxCell id="cFaB45KztUIKXS-_cTrr-9" value="ウインドウ" style="" parent="0" />
        <mxCell id="cFaB45KztUIKXS-_cTrr-10" value="" style="rounded=0;whiteSpace=wrap;html=1;strokeWidth=3;" parent="cFaB45KztUIKXS-_cTrr-9" vertex="1">
          <mxGeometry x="1" y="1" width="1595" height="1180" as="geometry" />
        </mxCell>
        <mxCell id="cFaB45KztUIKXS-_cTrr-11" value="" style="rounded=0;whiteSpace=wrap;html=1;fillColor=#B3B3B3;fontColor=#333333;strokeColor=#666666;" parent="cFaB45KztUIKXS-_cTrr-9" vertex="1">
          <mxGeometry width="1595" height="60" as="geometry" />
        </mxCell>
        <mxCell id="cFaB45KztUIKXS-_cTrr-12" value="&lt;font style=&quot;font-size: 48px;&quot;&gt;×&lt;/font&gt;" style="rounded=0;whiteSpace=wrap;html=1;" parent="cFaB45KztUIKXS-_cTrr-9" vertex="1">
          <mxGeometry x="1550" y="10" width="40" height="40" as="geometry" />
        </mxCell>
        <mxCell id="cFaB45KztUIKXS-_cTrr-14" value="名称未設定レイヤ" style="" parent="0" />
        <mxCell id="1w1X7eHd65dwKM3AoIyf-25" value="&lt;span style=&quot;font-size: 30px;&quot;&gt;国会議員の所属または&lt;br&gt;候補者の所属予定&lt;br&gt;&lt;/span&gt;" style="rounded=0;whiteSpace=wrap;html=1;align=right;dashed=1;dashPattern=8 8;verticalAlign=bottom;" vertex="1" parent="cFaB45KztUIKXS-_cTrr-14">
          <mxGeometry x="70" y="140" width="340" height="76" as="geometry" />
        </mxCell>
        <mxCell id="1w1X7eHd65dwKM3AoIyf-26" value="&lt;font style=&quot;font-size: 84px;&quot;&gt;○&lt;/font&gt;" style="text;html=1;strokeColor=none;fillColor=none;align=center;verticalAlign=middle;whiteSpace=wrap;rounded=0;fontSize=60;" vertex="1" parent="cFaB45KztUIKXS-_cTrr-14">
          <mxGeometry x="440" y="150" width="60" height="30" as="geometry" />
        </mxCell>
        <mxCell id="1w1X7eHd65dwKM3AoIyf-27" value="&lt;font style=&quot;font-size: 48px;&quot;&gt;●&lt;/font&gt;" style="text;html=1;strokeColor=none;fillColor=none;align=center;verticalAlign=middle;whiteSpace=wrap;rounded=0;fontSize=48;" vertex="1" parent="cFaB45KztUIKXS-_cTrr-14">
          <mxGeometry x="440" y="152" width="60" height="30" as="geometry" />
        </mxCell>
        <mxCell id="1w1X7eHd65dwKM3AoIyf-28" value="&lt;font style=&quot;font-size: 84px;&quot;&gt;○&lt;/font&gt;" style="text;html=1;strokeColor=none;fillColor=none;align=center;verticalAlign=middle;whiteSpace=wrap;rounded=0;fontSize=60;" vertex="1" parent="cFaB45KztUIKXS-_cTrr-14">
          <mxGeometry x="670" y="150" width="60" height="30" as="geometry" />
        </mxCell>
        <mxCell id="1w1X7eHd65dwKM3AoIyf-29" value="&lt;font style=&quot;font-size: 30px;&quot;&gt;参議院現職&lt;/font&gt;" style="text;html=1;strokeColor=none;fillColor=none;align=left;verticalAlign=middle;whiteSpace=wrap;rounded=0;" vertex="1" parent="cFaB45KztUIKXS-_cTrr-14">
          <mxGeometry x="725" y="142" width="275" height="60" as="geometry" />
        </mxCell>
        <mxCell id="1w1X7eHd65dwKM3AoIyf-30" value="&lt;span style=&quot;font-size: 30px;&quot;&gt;衆議院現職&lt;br&gt;&lt;/span&gt;" style="text;html=1;strokeColor=none;fillColor=none;align=left;verticalAlign=middle;whiteSpace=wrap;rounded=0;" vertex="1" parent="cFaB45KztUIKXS-_cTrr-14">
          <mxGeometry x="490" y="141" width="220" height="60" as="geometry" />
        </mxCell>
        <mxCell id="1w1X7eHd65dwKM3AoIyf-31" value="&lt;span style=&quot;font-size: 30px;&quot;&gt;議員(候補者)名前&lt;/span&gt;" style="rounded=0;whiteSpace=wrap;html=1;align=right;dashed=1;dashPattern=8 8;verticalAlign=bottom;" vertex="1" parent="cFaB45KztUIKXS-_cTrr-14">
          <mxGeometry x="70" y="239" width="340" height="46" as="geometry" />
        </mxCell>
        <mxCell id="1w1X7eHd65dwKM3AoIyf-32" value="&lt;span style=&quot;font-size: 30px;&quot;&gt;名前ふりがな&lt;/span&gt;" style="rounded=0;whiteSpace=wrap;html=1;align=right;dashed=1;dashPattern=8 8;verticalAlign=bottom;" vertex="1" parent="cFaB45KztUIKXS-_cTrr-14">
          <mxGeometry x="70" y="309" width="340" height="46" as="geometry" />
        </mxCell>
        <mxCell id="1w1X7eHd65dwKM3AoIyf-33" value="&lt;span style=&quot;font-size: 30px;&quot;&gt;政治団体&lt;/span&gt;" style="rounded=0;whiteSpace=wrap;html=1;align=left;" vertex="1" parent="cFaB45KztUIKXS-_cTrr-14">
          <mxGeometry x="440" y="238" width="250" height="48" as="geometry" />
        </mxCell>
        <mxCell id="1w1X7eHd65dwKM3AoIyf-34" value="&lt;span style=&quot;font-size: 30px;&quot;&gt;太郎&lt;/span&gt;" style="rounded=0;whiteSpace=wrap;html=1;align=left;" vertex="1" parent="cFaB45KztUIKXS-_cTrr-14">
          <mxGeometry x="770" y="238" width="250" height="48" as="geometry" />
        </mxCell>
        <mxCell id="1w1X7eHd65dwKM3AoIyf-35" value="&lt;span style=&quot;font-size: 30px;&quot;&gt;(姓)&lt;/span&gt;" style="rounded=0;whiteSpace=wrap;html=1;align=right;dashed=1;dashPattern=8 8;verticalAlign=bottom;" vertex="1" parent="cFaB45KztUIKXS-_cTrr-14">
          <mxGeometry x="694" y="239" width="50" height="46" as="geometry" />
        </mxCell>
        <mxCell id="1w1X7eHd65dwKM3AoIyf-36" value="&lt;span style=&quot;font-size: 30px;&quot;&gt;(名)&lt;/span&gt;" style="rounded=0;whiteSpace=wrap;html=1;align=right;dashed=1;dashPattern=8 8;verticalAlign=bottom;" vertex="1" parent="cFaB45KztUIKXS-_cTrr-14">
          <mxGeometry x="1024" y="239" width="50" height="46" as="geometry" />
        </mxCell>
        <mxCell id="1w1X7eHd65dwKM3AoIyf-37" value="" style="rounded=0;whiteSpace=wrap;html=1;align=left;" vertex="1" parent="cFaB45KztUIKXS-_cTrr-14">
          <mxGeometry x="1090" y="238" width="250" height="48" as="geometry" />
        </mxCell>
        <mxCell id="1w1X7eHd65dwKM3AoIyf-38" value="&lt;span style=&quot;font-size: 30px;&quot;&gt;(ミドルネーム)&lt;/span&gt;" style="rounded=0;whiteSpace=wrap;html=1;align=right;dashed=1;dashPattern=8 8;verticalAlign=bottom;" vertex="1" parent="cFaB45KztUIKXS-_cTrr-14">
          <mxGeometry x="1344" y="239" width="206" height="46" as="geometry" />
        </mxCell>
        <mxCell id="1w1X7eHd65dwKM3AoIyf-39" value="&lt;span style=&quot;font-size: 30px;&quot;&gt;政治団体&lt;/span&gt;" style="rounded=0;whiteSpace=wrap;html=1;align=left;" vertex="1" parent="cFaB45KztUIKXS-_cTrr-14">
          <mxGeometry x="440" y="308" width="250" height="48" as="geometry" />
        </mxCell>
        <mxCell id="1w1X7eHd65dwKM3AoIyf-40" value="&lt;span style=&quot;font-size: 30px;&quot;&gt;太郎&lt;/span&gt;" style="rounded=0;whiteSpace=wrap;html=1;align=left;" vertex="1" parent="cFaB45KztUIKXS-_cTrr-14">
          <mxGeometry x="770" y="308" width="250" height="48" as="geometry" />
        </mxCell>
        <mxCell id="1w1X7eHd65dwKM3AoIyf-41" value="&lt;span style=&quot;font-size: 30px;&quot;&gt;(姓)&lt;/span&gt;" style="rounded=0;whiteSpace=wrap;html=1;align=right;dashed=1;dashPattern=8 8;verticalAlign=bottom;" vertex="1" parent="cFaB45KztUIKXS-_cTrr-14">
          <mxGeometry x="694" y="309" width="50" height="46" as="geometry" />
        </mxCell>
        <mxCell id="1w1X7eHd65dwKM3AoIyf-42" value="&lt;span style=&quot;font-size: 30px;&quot;&gt;(名)&lt;/span&gt;" style="rounded=0;whiteSpace=wrap;html=1;align=right;dashed=1;dashPattern=8 8;verticalAlign=bottom;" vertex="1" parent="cFaB45KztUIKXS-_cTrr-14">
          <mxGeometry x="1024" y="309" width="50" height="46" as="geometry" />
        </mxCell>
        <mxCell id="1w1X7eHd65dwKM3AoIyf-43" value="" style="rounded=0;whiteSpace=wrap;html=1;align=left;" vertex="1" parent="cFaB45KztUIKXS-_cTrr-14">
          <mxGeometry x="1090" y="308" width="250" height="48" as="geometry" />
        </mxCell>
        <mxCell id="1w1X7eHd65dwKM3AoIyf-44" value="&lt;span style=&quot;font-size: 30px;&quot;&gt;(ミドルネーム)&lt;/span&gt;" style="rounded=0;whiteSpace=wrap;html=1;align=right;dashed=1;dashPattern=8 8;verticalAlign=bottom;" vertex="1" parent="cFaB45KztUIKXS-_cTrr-14">
          <mxGeometry x="1344" y="309" width="206" height="46" as="geometry" />
        </mxCell>
        <mxCell id="1w1X7eHd65dwKM3AoIyf-45" value="&lt;font style=&quot;font-size: 84px;&quot;&gt;○&lt;/font&gt;" style="text;html=1;strokeColor=none;fillColor=none;align=center;verticalAlign=middle;whiteSpace=wrap;rounded=0;fontSize=60;" vertex="1" parent="cFaB45KztUIKXS-_cTrr-14">
          <mxGeometry x="890" y="150" width="60" height="30" as="geometry" />
        </mxCell>
        <mxCell id="1w1X7eHd65dwKM3AoIyf-46" value="&lt;font style=&quot;font-size: 84px;&quot;&gt;○&lt;/font&gt;" style="text;html=1;strokeColor=none;fillColor=none;align=center;verticalAlign=middle;whiteSpace=wrap;rounded=0;fontSize=60;" vertex="1" parent="cFaB45KztUIKXS-_cTrr-14">
          <mxGeometry x="1120" y="150" width="60" height="30" as="geometry" />
        </mxCell>
        <mxCell id="1w1X7eHd65dwKM3AoIyf-47" value="&lt;font style=&quot;font-size: 30px;&quot;&gt;参議院候補者&lt;/font&gt;" style="text;html=1;strokeColor=none;fillColor=none;align=left;verticalAlign=middle;whiteSpace=wrap;rounded=0;" vertex="1" parent="cFaB45KztUIKXS-_cTrr-14">
          <mxGeometry x="1175" y="142" width="275" height="60" as="geometry" />
        </mxCell>
        <mxCell id="1w1X7eHd65dwKM3AoIyf-48" value="&lt;span style=&quot;font-size: 30px;&quot;&gt;衆議院候補者&lt;br&gt;&lt;/span&gt;" style="text;html=1;strokeColor=none;fillColor=none;align=left;verticalAlign=middle;whiteSpace=wrap;rounded=0;" vertex="1" parent="cFaB45KztUIKXS-_cTrr-14">
          <mxGeometry x="940" y="141" width="220" height="60" as="geometry" />
        </mxCell>
        <mxCell id="1w1X7eHd65dwKM3AoIyf-49" value="&lt;span style=&quot;font-size: 30px;&quot;&gt;&lt;b&gt;国会議員現職・候補者3人目&lt;/b&gt;&lt;/span&gt;" style="rounded=0;whiteSpace=wrap;html=1;align=left;dashed=1;dashPattern=8 8;verticalAlign=bottom;" vertex="1" parent="cFaB45KztUIKXS-_cTrr-14">
          <mxGeometry x="60" y="77" width="520" height="46" as="geometry" />
        </mxCell>
      </root>
    </mxGraphModel>
  </diagram>
</mxfile>
